<svg xmlns="http://www.w3.org/2000/svg" viewBox="-34 -34 297 297" width="20" height="20" xmlns:c2pa="http://c2pa.org/manifest"><metadata><c2pa:manifest>AAAWgmp1bWIAAAAeanVtZGMycGEAEQAQgAAAqgA4m3EDYzJwYQAAABZcanVtYgAAAEdqdW1kYzJtYQARABCAAACqADibcQN1cm46YzJwYTphMzQ0NzBhZi1jZjIxLTQ3MDUtYjRhZi1hMjA1OWRkMzUxZGEAAAADl2p1bWIAAAApanVtZGMyYXMAEQAQgAAAqgA4m3EDYzJwYS5hc3NlcnRpb25zAAAAALxqdW1iAAAARGp1bWRjYm9yABEAEIAAAKoAOJtxE2MycGEuaW5ncmVkaWVudC52MwAAAAAYYzJzaJ+uGLWP+EYQhBnW4by0vvYAAABwY2JvcqNpZGM6Zm9ybWF0bWltYWdlL3N2Zyt4bWxqaW5zdGFuY2VJRHgseG1wOmlpZDphMjg2YWJkMC1hZTYxLTRiNGYtOWIwNy02NWQyZDNiY2EwMWRscmVsYXRpb25zaGlwaHBhcmVudE9mAAAB4mp1bWIAAABBanVtZGNib3IAEQAQgAAAqgA4m3ETYzJwYS5hY3Rpb25zLnYyAAAAABhjMnNorR8oAmoWB8ZQLRUNKtw1ogAAAZljYm9yomdhY3Rpb25zgqJmYWN0aW9ua2MycGEub3BlbmVkanBhcmFtZXRlcnOha2luZ3JlZGllbnRzgaJjdXJseC1zZWxmI2p1bWJmPWMycGEuYXNzZXJ0aW9ucy9jMnBhLmluZ3JlZGllbnQudjNkaGFzaFggoK8J2OvIl3oj5BIv2c0nI3rWNd0eCRX37qDR0u3WwvekZmFjdGlvbngdY29tLmFudGhyb3BpYy5jbGF1ZGUucHJvdmlkZWRqcGFyYW1ldGVyc6F4H2NvbS5hbnRocm9waWMub3JpZ2luLWNvbmZpZGVuY2VndW5rbm93bmtkZXNjcmlwdGlvbnhmQ2xhdWRlIHByb3ZpZGVkIHRoaXMgZmlsZSBhdCB0aGUgcmVxdWVzdCBvZiBhIHVzZXIgYW5kIG1heSBoYXZlIGNyZWF0ZWQgb3IgbW9kaWZpZWQgdGhlIGZpbGUgY29udGVudHMubXNvZnR3YXJlQWdlbnShZG5hbWVmQ2xhdWRlcmFsbEFjdGlvbnNJbmNsdWRlZPUAAADIanVtYgAAAEBqdW1kY2JvcgARABCAAACqADibcRNjMnBhLmhhc2guZGF0YQAAAAAYYzJzaBsko2xSM83NFCsPKlo0yJQAAACAY2JvcqVjYWxnZnNoYTI1NmNwYWRNAAAAAAAAAAAAAAAAAGRoYXNoWCCfZIGHzPqQfnL193jIK4G74ExmP1JBXZTJ70cvqptgZmRuYW1lbmp1bWJmIG1hbmlmZXN0amV4Y2x1c2lvbnOBomVzdGFydBiYZmxlbmd0aBkeBAAAAj5qdW1iAAAAJ2p1bWRjMmNsABEAEIAAAKoAOJtxA2MycGEuY2xhaW0udjIAAAACD2Nib3KlY2FsZ2ZzaGEyNTZpc2lnbmF0dXJleE1zZWxmI2p1bWJmPS9jMnBhL3VybjpjMnBhOmEzNDQ3MGFmLWNmMjEtNDcwNS1iNGFmLWEyMDU5ZGQzNTFkYS9jMnBhLnNpZ25hdHVyZWppbnN0YW5jZUlEeCx4bXA6aWlkOmIwMjk0MDZhLTI2ODgtNGM3Ny04OTAyLTg2YmQ2NWQ5YTRmMXJjcmVhdGVkX2Fzc2VydGlvbnODomN1cmx4LXNlbGYjanVtYmY9YzJwYS5hc3NlcnRpb25zL2MycGEuaW5ncmVkaWVudC52M2RoYXNoWCCgrwnY68iXeiPkEi/ZzScjetY13R4JFffuoNHS7dbC96JjdXJseCpzZWxmI2p1bWJmPWMycGEuYXNzZXJ0aW9ucy9jMnBhLmFjdGlvbnMudjJkaGFzaFggwspx3iybU1GOPqt/fpU9U3znxhlJFZw2DVR+JJ6WhCSiY3VybHgpc2VsZiNqdW1iZj1jMnBhLmFzc2VydGlvbnMvYzJwYS5oYXNoLmRhdGFkaGFzaFggdWMfCpyfWbVnOg1JaEotMq7mItb9gObcdVYWvcA8+hJ0Y2xhaW1fZ2VuZXJhdG9yX2luZm+jZG5hbWVvQW50aHJvcGljIEZpbGVzZ3ZlcnNpb25lMS4wLjBrc3BlY1ZlcnNpb25lMi40LjAAABA4anVtYgAAAChqdW1kYzJjcwARABCAAACqADibcQNjMnBhLnNpZ25hdHVyZQAAABAIY2JvctKEWQISogEmGCFZAgowggIGMIIBjaADAgECAhRA5aAK7sI50L64g/oGQgU9Z1UTADAKBggqhkjOPQQDAzBJMRcwFQYDVQQKEw5BbnRocm9waWMsIFBCQzEuMCwGA1UEAxMlQW50aHJvcGljIENvbnRlbnQgQ3JlZGVudGlhbHMgUm9vdCBDQTAeFw0yNjA4MDcxODQzNTZaFw0yODA4MDYxOTQzNTZaMEQxFzAVBgNVBAoTDkFudGhyb3BpYywgUEJDMSkwJwYDVQQDEyBBbnRocm9waWMgQ2xhdWRlIENvbnRlbnQgU2lnbmluZzBZMBMGByqGSM49AgEGCCqGSM49AwEHA0IABJh6CmvLUBgFFNU0vUKlOVtE6djd17L5SuwX0LemFisBM3dkd/3cyjxFA3Qo5S46fX0/ihY0VZ7mfb9KF703t5OjWDBWMA4GA1UdDwEB/wQEAwIHgDAVBgNVHSUEDjAMBgorBgEEAYPoXgIBMAwGA1UdEwEB/wQCMAAwHwYDVR0jBBgwFoAUzlHiBIFOZFsj+OPEz5o+nMHXXMIwCgYIKoZIzj0EAwMDZwAwZAIwMXMdFJ4BetLLVY7ORuE9noqbbAZOZn/aArXyTwFAZfKrPzxF2vPoJNf1+UCdg1XGAjBwX1zd9WGqYkqmL5SFqw1QySjr1zJfpJM9+1rdDwSPLMOPOjKuiXjoU/pUUeG9RwmhY3BhZFkNngAAAAAAAAAAAAAAAAAAAAAAAAAAAAAAAAAAAAAAAAAAAAAAAAAAAAAAAAAAAAAAAAAAAAAAAAAAAAAAAAAAAAAAAAAAAAAAAAAAAAAAAAAAAAAAAAAAAAAAAAAAAAAAAAAAAAAAAAAAAAAAAAAAAAAAAAAAAAAAAAAAAAAAAAAAAAAAAAAAAAAAAAAAAAAAAAAAAAAAAAAAAAAAAAAAAAAAAAAAAAAAAAAAAAAAAAAAAAAAAAAAAAAAAAAAAAAAAAAAAAAAAAAAAAAAAAAAAAAAAAAAAAAAAAAAAAAAAAAAAAAAAAAAAAAAAAAAAAAAAAAAAAAAAAAAAAAAAAAAAAAAAAAAAAAAAAAAAAAAAAAAAAAAAAAAAAAAAAAAAAAAAAAAAAAAAAAAAAAAAAAAAAAAAAAAAAAAAAAAAAAAAAAAAAAAAAAAAAAAAAAAAAAAAAAAAAAAAAAAAAAAAAAAAAAAAAAAAAAAAAAAAAAAAAAAAAAAAAAAAAAAAAAAAAAAAAAAAAAAAAAAAAAAAAAAAAAAAAAAAAAAAAAAAAAAAAAAAAAAAAAAAAAAAAAAAAAAAAAAAAAAAAAAAAAAAAAAAAAAAAAAAAAAAAAAAAAAAAAAAAAAAAAAAAAAAAAAAAAAAAAAAAAAAAAAAAAAAAAAAAAAAAAAAAAAAAAAAAAAAAAAAAAAAAAAAAAAAAAAAAAAAAAAAAAAAAAAAAAAAAAAAAAAAAAAAAAAAAAAAAAAAAAAAAAAAAAAAAAAAAAAAAAAAAAAAAAAAAAAAAAAAAAAAAAAAAAAAAAAAAAAAAAAAAAAAAAAAAAAAAAAAAAAAAAAAAAAAAAAAAAAAAAAAAAAAAAAAAAAAAAAAAAAAAAAAAAAAAAAAAAAAAAAAAAAAAAAAAAAAAAAAAAAAAAAAAAAAAAAAAAAAAAAAAAAAAAAAAAAAAAAAAAAAAAAAAAAAAAAAAAAAAAAAAAAAAAAAAAAAAAAAAAAAAAAAAAAAAAAAAAAAAAAAAAAAAAAAAAAAAAAAAAAAAAAAAAAAAAAAAAAAAAAAAAAAAAAAAAAAAAAAAAAAAAAAAAAAAAAAAAAAAAAAAAAAAAAAAAAAAAAAAAAAAAAAAAAAAAAAAAAAAAAAAAAAAAAAAAAAAAAAAAAAAAAAAAAAAAAAAAAAAAAAAAAAAAAAAAAAAAAAAAAAAAAAAAAAAAAAAAAAAAAAAAAAAAAAAAAAAAAAAAAAAAAAAAAAAAAAAAAAAAAAAAAAAAAAAAAAAAAAAAAAAAAAAAAAAAAAAAAAAAAAAAAAAAAAAAAAAAAAAAAAAAAAAAAAAAAAAAAAAAAAAAAAAAAAAAAAAAAAAAAAAAAAAAAAAAAAAAAAAAAAAAAAAAAAAAAAAAAAAAAAAAAAAAAAAAAAAAAAAAAAAAAAAAAAAAAAAAAAAAAAAAAAAAAAAAAAAAAAAAAAAAAAAAAAAAAAAAAAAAAAAAAAAAAAAAAAAAAAAAAAAAAAAAAAAAAAAAAAAAAAAAAAAAAAAAAAAAAAAAAAAAAAAAAAAAAAAAAAAAAAAAAAAAAAAAAAAAAAAAAAAAAAAAAAAAAAAAAAAAAAAAAAAAAAAAAAAAAAAAAAAAAAAAAAAAAAAAAAAAAAAAAAAAAAAAAAAAAAAAAAAAAAAAAAAAAAAAAAAAAAAAAAAAAAAAAAAAAAAAAAAAAAAAAAAAAAAAAAAAAAAAAAAAAAAAAAAAAAAAAAAAAAAAAAAAAAAAAAAAAAAAAAAAAAAAAAAAAAAAAAAAAAAAAAAAAAAAAAAAAAAAAAAAAAAAAAAAAAAAAAAAAAAAAAAAAAAAAAAAAAAAAAAAAAAAAAAAAAAAAAAAAAAAAAAAAAAAAAAAAAAAAAAAAAAAAAAAAAAAAAAAAAAAAAAAAAAAAAAAAAAAAAAAAAAAAAAAAAAAAAAAAAAAAAAAAAAAAAAAAAAAAAAAAAAAAAAAAAAAAAAAAAAAAAAAAAAAAAAAAAAAAAAAAAAAAAAAAAAAAAAAAAAAAAAAAAAAAAAAAAAAAAAAAAAAAAAAAAAAAAAAAAAAAAAAAAAAAAAAAAAAAAAAAAAAAAAAAAAAAAAAAAAAAAAAAAAAAAAAAAAAAAAAAAAAAAAAAAAAAAAAAAAAAAAAAAAAAAAAAAAAAAAAAAAAAAAAAAAAAAAAAAAAAAAAAAAAAAAAAAAAAAAAAAAAAAAAAAAAAAAAAAAAAAAAAAAAAAAAAAAAAAAAAAAAAAAAAAAAAAAAAAAAAAAAAAAAAAAAAAAAAAAAAAAAAAAAAAAAAAAAAAAAAAAAAAAAAAAAAAAAAAAAAAAAAAAAAAAAAAAAAAAAAAAAAAAAAAAAAAAAAAAAAAAAAAAAAAAAAAAAAAAAAAAAAAAAAAAAAAAAAAAAAAAAAAAAAAAAAAAAAAAAAAAAAAAAAAAAAAAAAAAAAAAAAAAAAAAAAAAAAAAAAAAAAAAAAAAAAAAAAAAAAAAAAAAAAAAAAAAAAAAAAAAAAAAAAAAAAAAAAAAAAAAAAAAAAAAAAAAAAAAAAAAAAAAAAAAAAAAAAAAAAAAAAAAAAAAAAAAAAAAAAAAAAAAAAAAAAAAAAAAAAAAAAAAAAAAAAAAAAAAAAAAAAAAAAAAAAAAAAAAAAAAAAAAAAAAAAAAAAAAAAAAAAAAAAAAAAAAAAAAAAAAAAAAAAAAAAAAAAAAAAAAAAAAAAAAAAAAAAAAAAAAAAAAAAAAAAAAAAAAAAAAAAAAAAAAAAAAAAAAAAAAAAAAAAAAAAAAAAAAAAAAAAAAAAAAAAAAAAAAAAAAAAAAAAAAAAAAAAAAAAAAAAAAAAAAAAAAAAAAAAAAAAAAAAAAAAAAAAAAAAAAAAAAAAAAAAAAAAAAAAAAAAAAAAAAAAAAAAAAAAAAAAAAAAAAAAAAAAAAAAAAAAAAAAAAAAAAAAAAAAAAAAAAAAAAAAAAAAAAAAAAAAAAAAAAAAAAAAAAAAAAAAAAAAAAAAAAAAAAAAAAAAAAAAAAAAAAAAAAAAAAAAAAAAAAAAAAAAAAAAAAAAAAAAAAAAAAAAAAAAAAAAAAAAAAAAAAAAAAAAAAAAAAAAAAAAAAAAAAAAAAAAAAAAAAAAAAAAAAAAAAAAAAAAAAAAAAAAAAAAAAAAAAAAAAAAAAAAAAAAAAAAAAAAAAAAAAAAAAAAAAAAAAAAAAAAAAAAAAAAAAAAAAAAAAAAAAAAAAAAAAAAAAAAAAAAAAAAAAAAAAAAAAAAAAAAAAAAAAAAAAAAAAAAAAAAAAAAAAAAAAAAAAAAAAAAAAAAAAAAAAAAAAAAAAAAAAAAAAAAAAAAAAAAAAAAAAAAAAAAAAAAAAAAAAAAAAAAAAAAAAAAAAAAAAAAAAAAAAAAAAAAAAAAAAAAAAAAAAAAAAAAAAAAAAAAAAAAAAAAAAAAAAAAAAAAAAAAAAAAAAAAAAAAAAAAAAAAAAAAAAAAAAAAAAAAAAAAAAAAAAAAAAAAAAAAAAAAAAAAAAAAAAAAAAAAAAAAAAAAAAAAAAAAAAAAAAAAAAAAAAAAAAAAAAAAAAAAAAAAAAAAAAAAAAAAAAAAAAAAAAAAAAAAAAAAAAAAAAAAAAAAAAAAAAAAAAAAAAAAAAAAAAAAAAAAAAAAAAAAAAAAAAAAAAAAAAAAAAAAAAAAAAAAAAAAAAAAAAAAAAAAAAAAAAAAAAAAAAAAAAAAAAAAAAAAAAAAAAAAAAAAAAAAAAAAAAAAAAAAAAAAAAAAAAAAAAAAAAAAAAAAAAAAAAAAAAAAAAAAAAAAAAAAAAAAAAAAAAAAAAAAAAAAAAAAAAAAAAAAAAAAAAAAAAAAAAAAAAAAAAAAAAAAAAAAAAAAAAAAAAAAAAAAAAAAAAAAAAAAAAAAAAAAAAAAAAAAAAAAAAAAAAAAAAAAAAAAAAAAAAAAAAAAAAAAAAAAAAAAAAAAAAAAAAAAAAAAAAAAAAAAAAAAAAAAAAAAAAAAAAAAAAAAAAAAAAAAAAAAAAAAAAAAAAAAAAAAAAAAAAAAAAAAAAAAAAAAAAAAAAAAAAAAAAAAAAAAAAAAAAAAAAAAAAAAAAAAAAAAAAAAAAAAAAAAAAAAAAAAAAAAAAAAAAAAAAAAAAAAAAAAAAAAAAAAAAAAAAAAAAAAAAAAAAAAAAAAAAAAAAAAAAAAAAAAAAAAAAAAAAAAAAAAAAAAAAAAAAAAAAAAAAAAAAAAAAAAAAAAAAAAAAAAAAAAAAAAAAAAAAAAAAAAAAAAAAAAAAAAAAAAAAAAAAAAAAAAAAAAAAAAAAAAAAAAAAAAAAAAAAAAAAAAAAAAAAAAAAAAAAAAAAAAAAAAAAAAAAAAAAAAAAAAAAAAAAAAAAAAAAAAAAAAAAAAAAAAAAAAAAAAAAAAAAAAAAAAAAAAAAAAAAAAAAAAAAAAAAAAAAAAAAAAAAAAAAAAAAAAAAAAAAAAAAAAAAAAAAAAAAAAAAAAAAAAAAAAAAAAAAAAAAAAAAAAAAAAAAAAAAAAAAAAAAAAAAAAAAAAAAAAAAAAAAAAAAAAAAAAAAAAAAAAAAAAAAAAAAAAAAAAAAAAAAAAAAAAAAAAAAAAAAAAAAAAAAAAAAAAAAAAAAAAAAAAAAAAAAAAAAAAAAAAAAAAAAAAAAAAAAAAAAAAAAAAAPZYQG3qCiCFTvDjnC7ecEFLaAM533+xuVYKjYxuOVvwSZhSsP4hKh41AKB/8PTijBvg9ULoEdDviSJGnZ03/Eeczlo=</c2pa:manifest></metadata><defs><mask id="m" maskUnits="userSpaceOnUse" x="0" y="0" width="229" height="229"><path d="M228.541 114.228C228.541 130.133 225.184 145.994 218.738 160.534C212.674 174.217 203.904 186.669 193.065 196.988C155.933 232.34 99.497 238.596 55.5255 212.24C45.097 205.99 35.6851 198.072 27.7451 188.866C19.1926 178.953 12.3686 167.569 7.65781 155.351C2.60712 142.264 0 128.257 0 114.228C0 98.3219 3.35751 82.4611 9.80315 67.9215C15.8672 54.2382 24.6377 41.7862 35.4767 31.4668C72.6081 -3.88483 129.044 -10.1413 173.016 16.2153C183.444 22.4653 192.856 30.3829 200.796 39.5896C209.349 49.5018 216.173 60.8859 220.883 73.1037C225.934 86.1906 228.541 100.198 228.541 114.228Z" fill="#fff"/><path d="M86.39 95.73C86.24 96.19 86.10 96.62 85.96 97.05C85.82 97.48 85.69 97.89 85.56 98.30C85.42 98.72 85.29 99.13 85.16 99.54C85.02 99.96 84.89 100.38 84.75 100.81C84.61 101.25 84.47 101.68 84.31 102.15C84.16 102.62 84.01 103.10 83.84 103.62C83.67 104.15 83.49 104.69 83.29 105.31C83.09 105.93 82.89 106.57 82.64 107.33C82.39 108.10 82.14 108.89 81.81 109.90C81.48 110.91 81.19 112.21 80.68 113.41C80.17 114.60 79.54 116.07 78.75 117.07C77.96 118.07 76.95 118.83 75.94 119.41C74.93 119.99 73.78 120.36 72.67 120.54C71.57 120.73 70.39 120.70 69.30 120.51C68.21 120.31 67.11 119.91 66.15 119.36C65.19 118.80 64.27 118.06 63.54 117.20C62.81 116.34 62.17 115.30 61.77 114.19C61.37 113.08 61.11 111.81 61.15 110.51C61.20 109.21 61.72 107.62 62.05 106.39C62.37 105.16 62.79 104.09 63.09 103.14C63.40 102.20 63.64 101.45 63.88 100.72C64.11 100.00 64.31 99.39 64.50 98.79C64.69 98.20 64.86 97.67 65.03 97.16C65.19 96.65 65.34 96.19 65.49 95.73C65.64 95.27 65.78 94.84 65.92 94.41C66.06 93.98 66.19 93.57 66.32 93.15C66.46 92.73 66.59 92.33 66.72 91.91C66.86 91.49 66.99 91.08 67.13 90.64C67.27 90.21 67.41 89.77 67.57 89.30C67.72 88.83 67.87 88.35 68.04 87.83C68.21 87.30 68.39 86.76 68.59 86.14C68.79 85.53 68.99 84.89 69.24 84.12C69.49 83.36 69.74 82.57 70.07 81.55C70.40 80.54 70.69 79.24 71.20 78.05C71.71 76.85 72.34 75.38 73.13 74.38C73.92 73.38 74.93 72.62 75.94 72.04C76.95 71.47 78.10 71.09 79.21 70.91C80.31 70.73 81.49 70.75 82.58 70.95C83.67 71.14 84.77 71.55 85.73 72.10C86.69 72.65 87.61 73.39 88.34 74.26C89.07 75.12 89.71 76.15 90.11 77.26C90.51 78.38 90.77 79.64 90.73 80.94C90.68 82.24 90.16 83.84 89.83 85.06C89.51 86.29 89.09 87.37 88.79 88.31C88.48 89.25 88.24 90.00 88.00 90.73C87.77 91.45 87.57 92.07 87.38 92.66C87.19 93.25 87.02 93.78 86.85 94.29C86.69 94.80 86.54 95.27 86.39 95.73Z" transform="translate(74.79 95.73) matrix(1.2680 0.0000 0.0000 1.2258 0 0) translate(-75.94 -95.73)" fill="#000"/><path d="M139.52 103.01C139.67 103.46 139.82 103.91 139.99 104.40C140.16 104.89 140.33 105.40 140.53 105.98C140.73 106.56 140.93 107.15 141.18 107.87C141.42 108.58 141.67 109.31 141.99 110.25C142.31 111.18 142.68 112.18 143.09 113.47C143.50 114.77 144.27 116.56 144.44 117.99C144.61 119.43 144.44 120.86 144.09 122.08C143.74 123.30 143.08 124.40 142.33 125.31C141.59 126.22 140.63 127.00 139.63 127.56C138.62 128.11 137.47 128.50 136.33 128.66C135.20 128.82 133.96 128.78 132.81 128.50C131.67 128.22 130.48 127.74 129.46 126.97C128.44 126.20 127.45 125.14 126.71 123.90C125.97 122.66 125.50 120.77 125.04 119.51C124.58 118.24 124.27 117.24 123.95 116.32C123.63 115.39 123.38 114.66 123.14 113.95C122.90 113.25 122.70 112.66 122.50 112.08C122.31 111.51 122.13 111.00 121.96 110.51C121.80 110.02 121.64 109.57 121.49 109.13C121.34 108.69 121.20 108.27 121.06 107.86C120.92 107.45 120.79 107.06 120.65 106.66C120.51 106.27 120.38 105.88 120.25 105.48C120.11 105.08 119.98 104.69 119.84 104.28C119.69 103.87 119.55 103.46 119.40 103.01C119.25 102.57 119.10 102.12 118.93 101.63C118.76 101.13 118.59 100.62 118.39 100.05C118.19 99.47 117.99 98.87 117.74 98.16C117.50 97.45 117.25 96.71 116.93 95.78C116.61 94.84 116.23 93.84 115.83 92.55C115.42 91.26 114.64 89.47 114.48 88.03C114.31 86.60 114.48 85.17 114.83 83.95C115.18 82.73 115.84 81.63 116.59 80.72C117.33 79.81 118.29 79.03 119.29 78.47C120.29 77.91 121.45 77.52 122.59 77.37C123.72 77.21 124.96 77.25 126.10 77.53C127.25 77.81 128.44 78.29 129.46 79.06C130.48 79.82 131.47 80.88 132.21 82.13C132.95 83.37 133.42 85.26 133.88 86.52C134.34 87.78 134.65 88.79 134.97 89.71C135.29 90.64 135.54 91.37 135.78 92.07C136.02 92.78 136.22 93.37 136.42 93.95C136.61 94.52 136.79 95.03 136.95 95.52C137.12 96.01 137.28 96.46 137.43 96.90C137.58 97.34 137.72 97.75 137.86 98.16C138.00 98.57 138.13 98.97 138.27 99.36C138.40 99.76 138.54 100.15 138.67 100.54C138.81 100.94 138.94 101.33 139.08 101.75C139.22 102.16 139.37 102.57 139.52 103.01Z" transform="translate(130.43 103.77) matrix(1.2680 0.0000 0.0000 1.2258 0 0) translate(-129.46 -103.01)" fill="#000"/></mask></defs><rect width="229" height="229" fill="#fafafa" mask="url(#m)"/></svg>